Coordinates
nRows=223
nColumns=2
inDegrees=yes
endheader
time	ankle_angle_r	
2.69456	 -0.411987	
2.72782	 -0.356636	
2.76109	 -0.427812	
2.79435	 -0.421175	
2.82762	 -0.399861	
2.86089	 -0.420789	
2.89415	 -0.442505	
2.92742	 -0.420402	
2.96069	 -0.435467	
2.99395	 -0.435274	
3.02722	 -0.396729	
3.06048	 -0.453955	
3.09375	 -0.434694	
3.12702	 -0.411987	
3.16028	 -0.449566	
3.19355	 -0.420378	
3.22681	 -0.396729	
3.26008	 -0.448986	
3.29335	 -0.448792	
3.32661	 -0.418081	
3.35988	 -0.453085	
3.39315	 -0.448212	
3.42641	 -0.427246	
3.45968	 -0.447826	
3.49294	 -0.442505	
3.52621	 -0.427018	
3.55948	 -0.432505	
3.59274	 -0.442505	
3.62601	 -0.437052	
3.65927	 -0.452214	
3.69254	 -0.459442	
3.72581	 -0.421504	
3.75907	 -0.433085	
3.79234	 -0.396729	
3.8256	 -0.399922	
3.85887	 -0.396729	
3.89214	 -0.411987	
3.9254	 -0.394115	
3.95867	 -0.403148	
3.99194	 -0.387986	
4.0252	 -0.372824	
4.05847	 -0.381470	
4.09173	 -0.418793	
4.125	 -0.350952	
4.15827	 -0.396729	
4.19153	 -0.381470	
4.2248	 -0.381470	
4.25806	 -0.396049	
4.29133	 -0.381470	
4.3246	 -0.381177	
4.35786	 -0.389049	
4.39113	 -0.358722	
4.4244	 -0.335980	
4.45766	 -0.366211	
4.49093	 -0.405369	
4.52419	 -0.336561	
4.55746	 -0.428307	
4.59073	 -0.342696	
4.62399	 -0.344046	
4.65726	 -0.381470	
4.69052	 -0.335693	
4.72379	 -0.329078	
4.75706	 -0.387989	
4.79032	 -0.329271	
4.82359	 -0.329368	
4.85685	 -0.353753	
4.89012	 -0.363073	
4.92339	 -0.350952	
4.95665	 -0.408606	
4.98992	 -0.356794	
5.02319	 -0.381470	
5.05645	 -0.402377	
5.08972	 -0.371763	
5.12298	 -0.381470	
5.15625	 -0.407446	
5.18952	 -0.376735	
5.22278	 -0.371139	
5.25605	 -0.452695	
5.28931	 -0.416959	
5.32258	 -0.402237	
5.35585	 -0.468244	
5.38911	 -0.463659	
5.42238	 -0.462349	
5.45565	 -0.462252	
5.48891	 -0.416379	
5.52218	 -0.401024	
5.55544	 -0.503540	
5.58871	 -0.407885	
5.62198	 -0.411987	
5.65524	 -0.442505	
5.68851	 -0.389093	
5.72177	 -0.419417	
5.75504	 -0.427246	
5.78831	 -0.396729	
5.82157	 -0.427246	
5.85484	 -0.439177	
5.8881	 -0.399960	
5.92137	 -0.418257	
5.95464	 -0.433323	
5.9879	 -0.387353	
6.02117	 -0.452074	
6.05444	 -0.457764	
6.0877	 -0.399380	
6.12097	 -0.455209	
6.15423	 -0.442505	
6.1875	 -0.427246	
6.22077	 -0.427246	
6.25403	 -0.442505	
6.2873	 -0.394657	
6.32056	 -0.440530	
6.35383	 -0.410109	
6.3871	 -0.366211	
6.42036	 -0.440820	
6.45363	 -0.444093	
6.4869	 -0.381470	
6.52016	 -0.399518	
6.55343	 -0.411987	
6.58669	 -0.394326	
6.61996	 -0.427246	
6.65323	 -0.455748	
6.68649	 -0.382381	
6.71976	 -0.411173	
6.75302	 -0.396729	
6.78629	 -0.396729	
6.81956	 -0.397253	
6.85282	 -0.426818	
6.88609	 -0.365880	
6.91935	 -0.411987	
6.95262	 -0.426971	
6.98589	 -0.335775	
7.01915	 -0.411987	
7.05242	 -0.366668	
7.08569	 -0.336440	
7.11895	 -0.441813	
7.15222	 -0.397613	
7.18548	 -0.336772	
7.21875	 -0.411987	
7.25202	 -0.396729	
7.28528	 -0.351781	
7.31855	 -0.350952	
7.35181	 -0.323502	
7.38508	 -0.337932	
7.41835	 -0.366211	
7.45161	 -0.350952	
7.48488	 -0.335693	
7.51815	 -0.370729	
7.55141	 -0.352555	
7.58468	 -0.305176	
7.61794	 -0.383266	
7.65121	 -0.335693	
7.68448	 -0.341662	
7.71774	 -0.383556	
7.75101	 -0.294282	
7.78427	 -0.348673	
7.81754	 -0.366211	
7.85081	 -0.338166	
7.88407	 -0.340832	
7.91734	 -0.378804	
7.9506	 -0.335693	
7.98387	 -0.326154	
8.01714	 -0.378513	
8.0504	 -0.326540	
8.08367	 -0.305176	
8.11694	 -0.338940	
8.1502	 -0.344266	
8.18347	 -0.362771	
8.21673	 -0.393192	
8.25	 -0.335693	
8.28327	 -0.335693	
8.31653	 -0.366211	
8.3498	 -0.339616	
8.38306	 -0.324454	
8.41633	 -0.328668	
8.4496	 -0.342526	
8.48286	 -0.357591	
8.51613	 -0.366211	
8.5494	 -0.350952	
8.58266	 -0.387529	
8.61593	 -0.372077	
8.64919	 -0.350952	
8.68246	 -0.350952	
8.71573	 -0.376483	
8.74899	 -0.345869	
8.78226	 -0.391548	
8.81552	 -0.330417	
8.84879	 -0.350952	
8.88206	 -0.366211	
8.91532	 -0.411987	
8.94859	 -0.366211	
8.98185	 -0.400467	
9.01512	 -0.366211	
9.04839	 -0.390775	
9.08165	 -0.390678	
9.11492	 -0.390582	
9.14819	 -0.396729	
9.18145	 -0.403069	
9.21472	 -0.399113	
9.24798	 -0.388003	
9.28125	 -0.435875	
9.31452	 -0.435778	
9.34778	 -0.384693	
9.38105	 -0.459182	
9.41431	 -0.449522	
9.44758	 -0.420132	
9.48085	 -0.435294	
9.51411	 -0.442505	
9.54738	 -0.427246	
9.58065	 -0.457506	
9.61391	 -0.457828	
9.64718	 -0.412116	
9.68044	 -0.435037	
9.71371	 -0.457764	
9.74698	 -0.419971	
9.78024	 -0.427246	
9.81351	 -0.473022	
9.84677	 -0.442505	
9.88004	 -0.456281	
9.91331	 -0.450972	
9.94657	 -0.388164	
9.97984	 -0.425183	
10.0131	 -0.414243	
10.0464	 -0.381470	
10.0796	 -0.427246	
